<?xml version="1.0" encoding="UTF-8"?>
<svg id="Kupicake_Favicon" xmlns="http://www.w3.org/2000/svg" viewBox="0 0 512 512">
  <defs>
    <!-- Clip path to keep everything within the circular frame -->
    <clipPath id="circle-clip">
      <circle cx="256" cy="256" r="236" />
    </clipPath>
    <style>
      .cls-1 {
        opacity: .94;
      }

      .cls-2, .cls-3, .cls-4, .cls-5, .cls-6 {
        stroke: #000;
        stroke-miterlimit: 10;
      }

      .cls-2, .cls-6 {
        fill: none;
      }

      .cls-7 {
        fill: #bfbfbf;
      }

      .cls-4 {
        fill: #020202;
      }

      .cls-4, .cls-5, .cls-6 {
        stroke-width: 3px;
      }

      .cls-5 {
        fill: #fff;
      }

      .cls-6 {
        stroke-linecap: round;
      }
    </style>
  </defs>

  <!-- The Frame: Circular base with white background and elegant border -->
  <circle cx="256" cy="256" r="244" fill="#FFFFFF" stroke="#E5E2DC" stroke-width="16" />

  <!-- Clipped content inside the circular frame -->
  <g clip-path="url(#circle-clip)">
    <!-- Scale and shift the original Kupi Cake logo content -->
    <g transform="translate(3, 215) scale(2.2)">
      <path class="cls-5" d="m169.56,141.35c-6.27-9.16-20.47-6.98-51-6.38-41.82.83-58.61-2.4-64.63,8.02-2.15,3.69-2.15,7.73-1.79,10.62,2.41,12.79,5.03,23.23,7.18,30.93.78,2.78,1.54,5.37,2.26,7.72,10.13,5.6,21.33,9.56,33.21,11.53,5.66.94,11.48,1.43,17.4,1.43,12,0,23.53-2,34.25-5.7,5.88-2.02,11.52-4.54,16.85-7.52.73-2.43,1.45-4.91,2.15-7.46,3-10.99,5.3-21.61,6.77-30.97.29-3.34.15-8.12-2.64-12.21Z"/>
      <path class="cls-5" d="m190.22,146.95c-.84,1-7.12,8.44-14.45,7.59-1.3-.15-2.46-.56-3.54-1.13,0-2.4-17.57-4.63-41.52-5.43l-10.58,10.43-10.87-10.71c-31.55.15-57.14,2.84-57.14,5.74-1.06.56-2.21.95-3.5,1.1-7.33.85-13.6-6.6-14.45-7.59-11.25-13.37-6.72-38.11,4.48-54.33,1.66-2.41,3.66-5.32,6.03-7.99-.01-.14-.01-.29-.01-.42,0-9.62,2.89-18.69,7.99-26.62,1.65-.79,4.16-2.03,8.18-3.37,11.56-3.86,16.59-2.3,22.96-4.53,4.92-1.72,10.94-5.81,16.29-15.98,8.97,7.29,16.13,8.72,21.36,8.4,6.75-.42,10.76-3.79,22.92-4.73,2.43-.19,4.4-.22,5.97-.19,18.21,10.14,30.2,27.41,30.2,47.01,0,.46,0,.93-.01,1.39,2,2.39,3.73,4.91,5.2,7.02,11.19,16.22,15.75,40.96,4.48,54.33Z"/>
      <line class="cls-2" x1="52.15" y1="153.6" x2="52.12" y2="153.44"/>
      <polygon class="cls-4" points="120.1 158.59 132.47 175.45 120.1 186.27 107.74 175.45 120.1 158.59"/>
      <ellipse class="cls-7" cx="91.86" cy="90.81" rx="13.53" ry="14.13" transform="translate(-35.37 113.13) rotate(-54.62)"/>
      <ellipse class="cls-7" cx="160.52" cy="90.81" rx="14.13" ry="13.53" transform="translate(-22.94 109.71) rotate(-35.38)"/>
      <path class="cls-6" d="m120.96,88.02c-1.41,1.61-1.44,3.73-.5,4.74,1.12,1.2,3.96,1.19,5.64-.98,2,2.27,4.94,2.19,5.97.98.83-.97.69-2.95-.58-4.58"/>
      <path d="m114.92,53.59c.87,1.42-.38,3.74-2.79,5.17-2.41,1.44-5.07,1.45-5.94.03-.87-1.42.38-3.74,2.79-5.17,2.41-1.44,5.07-1.45,5.94-.03Z"/>
      <path d="m137.04,53.59c-.87,1.42.38,3.74,2.79,5.17,2.41,1.44,5.07,1.45,5.94.03.87-1.42-.38-3.74-2.79-5.17-2.41-1.44-5.07-1.45-5.94-.03Z"/>
      <path d="m156.12,36.8c-.35.85-1.88.45-5.77.4-1.58-.03-3.54,0-5.97.19-12.17.94-16.18,4.31-22.92,4.73-5.23.33-12.39-1.1-21.36-8.4-5.35,10.17-11.36,14.26-16.29,15.98-6.37,2.22-11.41.67-22.96,4.53-4.02,1.34-6.54,2.58-8.18,3.37-1.63.76-2.38,1.1-2.83.65-2.96-2.92,11.67-33.51,34.27-34.6,5.81-.29,10.85,1.43,14.63,3.35,2.68-3.22,6.64-6.73,12.08-8.72,21.22-7.74,46.86,14.71,45.31,18.52Z"/>
      <path class="cls-1" d="m100.73,204.59c-2.57-.38-5.14-.75-7.71-1.13-4.14-18.29-8.28-36.58-12.41-54.87,2.72-.14,5.43-.28,8.15-.42,3.99,18.81,7.99,37.61,11.98,56.42Z"/>
      <path class="cls-1" d="m139.21,201.71c2.7-.83,5.4-1.67,8.09-2.5,3.76-16.45,7.53-32.9,11.29-49.35-2.68-.26-5.36-.52-8.03-.79-3.78,17.55-7.57,35.09-11.35,52.64Z"/>
      <ellipse class="cls-3" cx="104.79" cy="78.25" rx="7" ry="7.71" transform="translate(-22.89 106.55) rotate(-49.25)"/>
      <ellipse class="cls-3" cx="147.59" cy="78.25" rx="7.71" ry="7" transform="translate(-15.3 115.32) rotate(-40.75)"/>
    </g>
  </g>
</svg>
