<svg id="Layer_5" xmlns="http://www.w3.org/2000/svg" viewBox="0 0 225 250.81">
  <defs>
    <style>
      .cls-1,.cls-2{fill:#fff;}
      .cls-3,.cls-4,.cls-2,.cls-5{stroke-miterlimit:10;}
      .cls-3,.cls-4,.cls-5{stroke:#000;}
      .cls-3,.cls-5{fill:none;}
      .cls-6{fill:#bfbfbf;}
      .cls-7,.cls-4{fill:#020202;}
      .cls-8{fill:#9b9b9b;}
      .cls-2{stroke:#fff;}
      .cls-5{stroke-linecap:round;stroke-width:3px;}
    </style>
  </defs>
  <path class="cls-8" d="m225,112.5c0,44.95-26.36,83.74-64.48,101.76-5.02,2.39-10.26,4.4-15.67,6.01-10.26,3.08-21.12,4.73-32.37,4.73-5.49,0-10.87-.39-16.15-1.15-11.06-1.6-21.61-4.79-31.39-9.36C26.59,196.58,0,157.64,0,112.5,0,50.36,50.37,0,112.49,0s112.51,50.36,112.51,112.5Z"/>
  <path d="m168.15,159.45c-6.08-9.01-19.87-6.86-49.45-6.27-40.55.82-56.84-2.36-62.69,7.88-2.07,3.63-2.07,7.6-1.72,10.44,2.34,12.58,4.87,22.85,6.95,30.42,1.34,4.87,2.62,9.13,3.72,12.56,9.77,4.57,20.32,7.76,31.39,9.36,5.28.76,10.66,1.15,16.15,1.15,11.25,0,22.11-1.65,32.37-4.73,5.41-1.61,10.65-3.62,15.67-6.01,1.26-3.96,2.48-8.07,3.62-12.33,2.91-10.81,5.13-21.25,6.55-30.46.3-3.28.16-7.99-2.55-12.01Z"/>
  <line class="cls-3" x1="54.29" y1="173.76" x2="54.26" y2="173.6"/>
  <polygon class="cls-2" points="120.18 178.67 132.17 195.25 120.18 205.89 108.19 195.25 120.18 178.67"/>
  <path class="cls-1" d="m99.64,224.27c-3-.43-6-.85-9.01-1.28-3.67-17.25-7.34-34.51-11.01-51.76,2.92-.17,5.84-.33,8.77-.5,3.75,17.85,7.5,35.7,11.25,53.55Z"/>
  <path class="cls-1" d="m141.42,221.24c2.89-.89,5.78-1.78,8.66-2.67,3.51-15.28,7.02-30.56,10.53-45.83-2.76-.32-5.53-.63-8.29-.95-3.64,16.48-7.27,32.97-10.91,49.45Z"/>
  <path d="m155.11,61.12c-.34.83-1.82.44-5.59.39-1.53-.03-3.43,0-5.79.19-11.8.93-15.69,4.24-22.23,4.65-5.07.32-12.01-1.09-20.71-8.26-5.19,10-11.02,14.02-15.79,15.71-6.18,2.19-11.06.66-22.27,4.45-3.9,1.31-6.34,2.53-7.94,3.31-1.58.75-2.31,1.09-2.75.64-2.87-2.87,11.32-32.95,33.24-34.03,5.63-.28,10.52,1.41,14.19,3.3,2.6-3.16,6.44-6.62,11.72-8.58,20.58-7.62,45.44,14.47,43.94,18.22Z"/>
  <path class="cls-1" d="m188.17,169.46c-.82.98-6.9,8.3-14.01,7.47-1.26-.15-2.39-.55-3.43-1.11,0-2.36-17.04-4.56-40.26-5.34l-10.26,10.26-10.54-10.54c-30.6.15-55.41,2.79-55.41,5.64-1.03.55-2.15.94-3.39,1.09-7.11.83-13.19-6.49-14.01-7.47-10.91-13.15-6.52-37.49,4.34-53.44,1.61-2.37,3.55-5.23,5.85-7.86-.01-.13-.01-.28-.01-.42,0-9.47,2.8-18.38,7.75-26.18,1.6-.78,4.04-2,7.94-3.31,11.21-3.79,16.09-2.27,22.27-4.45,4.77-1.69,10.61-5.71,15.79-15.71,8.7,7.17,15.65,8.58,20.71,8.26,6.54-.42,10.43-3.73,22.23-4.65,2.36-.19,4.26-.21,5.79-.19,17.66,9.97,29.28,26.96,29.28,46.24,0,.46,0,.91-.01,1.37,1.94,2.35,3.62,4.83,5.04,6.9,10.85,15.95,15.27,40.29,4.34,53.44Z"/>
  <ellipse class="cls-6" cx="92.77" cy="112" rx="13.23" ry="13.78" transform="translate(-52.03 98.42) rotate(-45.01)"/>
  <ellipse class="cls-6" cx="159.44" cy="112" rx="13.78" ry="13.23" transform="translate(-32.5 145.51) rotate(-44.99)"/>
  <path class="cls-5" d="m121.02,109.26c-1.37,1.58-1.4,3.67-.48,4.67,1.09,1.18,3.84,1.17,5.47-.97,1.94,2.23,4.79,2.16,5.79.97.8-.95.67-2.9-.56-4.5"/>
  <path class="cls-7" d="m115.16,75.39c.84,1.4-.37,3.68-2.71,5.09-2.34,1.41-4.92,1.42-5.76.03-.84-1.4.37-3.68,2.71-5.09,2.34-1.41,4.92-1.42,5.76-.03Z"/>
  <path class="cls-7" d="m136.61,75.39c-.84,1.4.37,3.68,2.71,5.09,2.34,1.41,4.92,1.42,5.76.03.84-1.4-.37-3.68-2.71-5.09-2.34-1.41-4.92-1.42-5.76-.03Z"/>
  <ellipse class="cls-4" cx="105.33" cy="99.64" rx="6.84" ry="7.52" transform="translate(-39.61 103.67) rotate(-45)"/>
  <ellipse class="cls-4" cx="146.84" cy="99.64" rx="7.52" ry="6.84" transform="translate(-27.45 133) rotate(-45)"/>
</svg>
